<?xml version="1.0" encoding="utf-8"?>
<!-- Generator: Adobe Illustrator 22.0.0, SVG Export Plug-In . SVG Version: 6.00 Build 0)  -->
<svg version="1.1" id="Capa_1" xmlns="http://www.w3.org/2000/svg" xmlns:xlink="http://www.w3.org/1999/xlink" x="0px" y="0px"
	 viewBox="0 0 500 500" style="enable-background:new 0 0 500 500;" xml:space="preserve">
<style type="text/css">
	.st0{fill:#23201F;}
</style>
<g transform="matrix(1, 0, 0, 1, 221.167175, 102.320496)">
	<path class="st0" d="M28.7-101.8c-138,0-249.9,111.9-249.9,249.9S-109.3,398,28.7,398s249.9-111.9,249.9-249.9
		S166.7-101.8,28.7-101.8z M124.1,25.5l-34.6,0c-27.1,0-32.3,12.9-32.3,31.8V99h64.6l0,65.3H57.2v167.5h-67.4V164.2h-56.4V99h56.4
		V50.8c0-55.9,34.1-86.3,84-86.3l50.4,0.1L124.1,25.5L124.1,25.5z"/>
</g>
<g transform="matrix(1, 0, 0, 1, 2.790427">
</g>
<g transform="matrix(1, 0, 0, 1, 2.790427">
</g>
<g transform="matrix(1, 0, 0, 1, 2.790427">
</g>
<g transform="matrix(1, 0, 0, 1, 2.790427">
</g>
<g transform="matrix(1, 0, 0, 1, 2.790427">
</g>
<g transform="matrix(1, 0, 0, 1, 2.790427">
</g>
<g transform="matrix(1, 0, 0, 1, 2.790427">
</g>
<g transform="matrix(1, 0, 0, 1, 2.790427">
</g>
<g transform="matrix(1, 0, 0, 1, 2.790427">
</g>
<g transform="matrix(1, 0, 0, 1, 2.790427">
</g>
<g transform="matrix(1, 0, 0, 1, 2.790427">
</g>
<g transform="matrix(1, 0, 0, 1, 2.790427">
</g>
<g transform="matrix(1, 0, 0, 1, 2.790427">
</g>
<g transform="matrix(1, 0, 0, 1, 2.790427">
</g>
<g transform="matrix(1, 0, 0, 1, 2.790427">
</g>
</svg>
