<svg id="Capa_1" data-name="Capa 1" xmlns="http://www.w3.org/2000/svg" viewBox="0 0 692.56 920.02"><defs><style>.cls-1{font-size:146.74px;font-family:CenturyGothic-Bold, Century Gothic;font-weight:700;}.cls-1,.cls-4{fill:#231f21;}.cls-2{font-size:67.5px;font-family:CenturyGothic, Century Gothic;}.cls-2,.cls-3{fill:#f39324;}</style></defs><text class="cls-1" transform="translate(0 660.85)">ALBUFERA</text><text class="cls-1" transform="translate(127.65 795.41)">PLAZA</text><text class="cls-2" transform="translate(62.23 899.32)">centro comercial</text><path class="cls-3" d="M115.2,59.11c8.73-4.48,29.79-7.39,31,1.6s-2.67,10-18.25,14.41c-13,3.68-8.21,11.69-15.5,14-3.48,1.09-11.23,4-13.73-11.27-1.33-8.28,9.12-15,16.45-18.75m6-50.1c5.38-1.15,12.2.31,20.23,8.15S154,34.78,151.85,38.36s-8.83,4.88-14.29,1.91a86.12,86.12,0,0,0-23.42-8.58c-10.29-2.25-4.92-20.14,7.07-22.68m63.11,14c10.12-3.05,19.58-5.55,25.06-.42C220.57,33,211.83,41,207.06,41.83c-5.81,1-10.07-4-21.24,1.48-15.56,7.6-19,10.5-24.34,3.5S174.34,26,184.32,23M171.23.57c9.11,1.86,8.71,10.14,5.55,15.34S168.12,28,161.71,27.08c-9.71-1.4-9-9.45-7.67-14.31,1.8-7,4.29-14.87,17.19-12.2m19.51,103c-1.79,7.49-17,6.32-29.07-6.64s-13-21.47-11.76-30.69,17.49-12.51,22-2.57c5.1,11.15,3.12,16.85,6.21,19.21,8.9,6.77,14.24,13.73,12.59,20.69" transform="translate(3.45 -0.04)"/><path class="cls-3" d="M250.25,59.11c8.74-4.48,29.8-7.39,31,1.6s-2.68,10-18.26,14.41c-13,3.68-8.22,11.69-15.5,14-3.48,1.09-11.22,4-13.73-11.27-1.33-8.28,9.13-15,16.45-18.75m6-50.1c5.37-1.15,12.2.31,20.23,8.15S289,34.78,286.91,38.36s-8.84,4.88-14.29,1.91a86.34,86.34,0,0,0-23.43-8.58C238.9,29.44,244.28,11.55,256.27,9m63.11,14C329.5,20,339,17.45,344.43,22.58,355.62,33,346.88,41,342.11,41.83c-5.81,1-10.06-4-21.24,1.48-15.56,7.6-19,10.5-24.34,3.5S309.4,26,319.38,23M306.28.57c9.11,1.86,8.72,10.14,5.55,15.34S303.17,28,296.76,27.08c-9.71-1.4-9-9.45-7.68-14.31,1.82-7,4.3-14.87,17.2-12.2m19.51,103c-1.8,7.49-17,6.32-29.07-6.64s-13-21.47-11.76-30.69,17.49-12.51,22-2.57c5.11,11.15,3.13,16.85,6.22,19.21,8.88,6.77,14.23,13.73,12.58,20.69" transform="translate(3.45 -0.04)"/><path class="cls-3" d="M384.89,59.11c8.74-4.48,29.79-7.39,31,1.6s-2.68,10-18.25,14.41c-13,3.68-8.22,11.69-15.49,14-3.49,1.09-11.23,4-13.72-11.27-1.35-8.28,9.1-15,16.43-18.75m6-50.1c5.36-1.15,12.19.31,20.22,8.15s12.52,17.62,10.42,21.2-8.82,4.88-14.3,1.91a86.3,86.3,0,0,0-23.41-8.58c-10.28-2.25-4.93-20.14,7.07-22.68M454,23c10.17-3.05,19.59-5.55,25.07-.42C490.25,33,481.52,41,476.74,41.83c-5.81,1-10.05-4-21.24,1.48-15.55,7.6-19,10.5-24.31,3.5S444,26,454,23M440.93.57c9.09,1.86,8.73,10.14,5.53,15.34S437.81,28,431.39,27.08c-9.69-1.4-9-9.45-7.67-14.31,1.81-7,4.29-14.87,17.21-12.2m19.48,103c-1.77,7.49-17,6.32-29.05-6.64s-13-21.47-11.76-30.69,17.49-12.51,22-2.57c5.11,11.15,3.14,16.85,6.23,19.21,8.87,6.77,14.22,13.73,12.56,20.69" transform="translate(3.45 -0.04)"/><path class="cls-3" d="M520,59.11c8.73-4.48,29.76-7.39,31,1.6s-2.66,10-18.24,14.41c-13,3.68-8.24,11.69-15.5,14-3.49,1.09-11.24,4-13.74-11.27-1.33-8.28,9.1-15,16.46-18.75M526,9c5.36-1.15,12.18.31,20.2,8.15s12.54,17.62,10.44,21.2-8.84,4.88-14.29,1.91a86.17,86.17,0,0,0-23.44-8.58C508.59,29.44,514,11.55,526,9m63.11,14c10.14-3.05,19.58-5.55,25.06-.42C625.3,33,616.57,41,611.81,41.83c-5.81,1-10.07-4-21.25,1.48-15.57,7.6-19,10.5-24.32,3.5S579.06,26,589.07,23M576,.57c9.11,1.86,8.73,10.14,5.51,15.34S572.83,28,566.42,27.08c-9.67-1.4-8.93-9.45-7.65-14.31,1.81-7,4.28-14.87,17.21-12.2m19.49,103c-1.76,7.49-17,6.32-29.06-6.64s-13-21.47-11.76-30.69,17.48-12.51,22-2.57c5.09,11.15,3.1,16.85,6.21,19.21,8.88,6.77,14.22,13.73,12.57,20.69" transform="translate(3.45 -0.04)"/><path class="cls-3" d="M115.2,191.54c8.73-4.47,29.79-7.38,31,1.6s-2.67,10.05-18.25,14.43c-13,3.69-8.21,11.69-15.5,14-3.48,1.13-11.23,4-13.73-11.24-1.33-8.3,9.12-15,16.45-18.78m6-50.08c5.38-1.13,12.2.31,20.23,8.15S154,167.23,151.85,170.8s-8.83,4.88-14.29,1.91a87.79,87.79,0,0,0-23.42-8.59c-10.29-2.22-4.92-20.12,7.07-22.66m63.11,14c10.12-3.06,19.58-5.56,25.06-.43,11.19,10.39,2.45,18.44-2.32,19.27-5.81,1-10.07-4-21.24,1.47-15.56,7.6-19,10.48-24.34,3.51-5.4-7.12,12.86-20.84,22.84-23.82M171.23,133c9.11,1.87,8.71,10.17,5.55,15.39s-8.66,12-15.07,11.13c-9.71-1.38-9-9.43-7.67-14.31,1.8-7,4.29-14.89,17.19-12.21m19.51,103.05c-1.79,7.46-17,6.31-29.07-6.66s-13-21.45-11.76-30.69,17.49-12.51,22-2.55c5.1,11.15,3.12,16.85,6.21,19.19,8.9,6.79,14.24,13.77,12.59,20.71" transform="translate(3.45 -0.04)"/><path class="cls-4" d="M250.25,191.54c8.74-4.47,29.8-7.38,31,1.6s-2.68,10.05-18.26,14.43c-13,3.69-8.22,11.69-15.5,14-3.48,1.13-11.22,4-13.73-11.24-1.33-8.3,9.13-15,16.45-18.78m6-50.08c5.37-1.13,12.2.31,20.23,8.15S289,167.23,286.91,170.8s-8.84,4.88-14.29,1.91a88,88,0,0,0-23.43-8.59c-10.29-2.22-4.91-20.12,7.08-22.66m63.11,14c10.12-3.06,19.58-5.56,25.05-.43,11.19,10.39,2.45,18.44-2.32,19.27-5.81,1-10.06-4-21.24,1.47-15.56,7.6-19,10.48-24.34,3.51-5.4-7.12,12.87-20.84,22.85-23.82M306.28,133c9.11,1.87,8.72,10.17,5.55,15.39s-8.66,12-15.07,11.13c-9.71-1.38-9-9.43-7.68-14.31,1.82-7,4.3-14.89,17.2-12.21m19.51,103.05c-1.8,7.46-17,6.31-29.07-6.66s-13-21.45-11.76-30.69,17.49-12.51,22-2.55c5.11,11.15,3.13,16.85,6.22,19.19,8.88,6.79,14.23,13.77,12.58,20.71" transform="translate(3.45 -0.04)"/><path class="cls-3" d="M384.89,191.54c8.74-4.47,29.79-7.38,31,1.6s-2.68,10.05-18.25,14.43c-13,3.69-8.22,11.69-15.49,14-3.49,1.13-11.23,4-13.72-11.24-1.35-8.3,9.1-15,16.43-18.78m6-50.08c5.36-1.13,12.19.31,20.22,8.15s12.52,17.62,10.42,21.19-8.82,4.88-14.3,1.91a88,88,0,0,0-23.41-8.59c-10.28-2.22-4.93-20.12,7.07-22.66m63.1,14c10.17-3.06,19.59-5.56,25.07-.43,11.17,10.39,2.44,18.44-2.34,19.27-5.81,1-10.05-4-21.24,1.47-15.55,7.6-19,10.48-24.31,3.51-5.41-7.12,12.84-20.84,22.82-23.82M440.93,133c9.09,1.87,8.73,10.17,5.53,15.39s-8.65,12-15.07,11.13c-9.69-1.38-9-9.43-7.67-14.31,1.81-7,4.29-14.89,17.21-12.21m19.48,103.05c-1.77,7.46-17,6.31-29.05-6.66s-13-21.45-11.76-30.69,17.49-12.51,22-2.55c5.11,11.15,3.14,16.85,6.23,19.19,8.87,6.79,14.22,13.77,12.56,20.71" transform="translate(3.45 -0.04)"/><path class="cls-3" d="M520,191.54c8.73-4.47,29.76-7.38,31,1.6s-2.66,10.05-18.24,14.43c-13,3.69-8.24,11.69-15.5,14-3.49,1.13-11.24,4-13.74-11.24-1.33-8.3,9.1-15,16.46-18.78m6-50.08c5.36-1.13,12.18.31,20.2,8.15s12.54,17.62,10.44,21.19-8.84,4.88-14.29,1.91a87.83,87.83,0,0,0-23.44-8.59C508.59,161.9,514,144,526,141.46m63.11,14c10.14-3.06,19.58-5.56,25.06-.43,11.17,10.39,2.44,18.44-2.32,19.27-5.81,1-10.07-4-21.25,1.47-15.57,7.6-19,10.48-24.32,3.51-5.4-7.12,12.82-20.84,22.83-23.82M576,133c9.11,1.87,8.73,10.17,5.51,15.39s-8.66,12-15.07,11.13c-9.67-1.38-8.93-9.43-7.65-14.31,1.81-7,4.28-14.89,17.21-12.21m19.49,103.05c-1.76,7.46-17,6.31-29.06-6.66s-13-21.45-11.76-30.69,17.48-12.51,22-2.55c5.09,11.15,3.1,16.85,6.21,19.19,8.88,6.79,14.22,13.77,12.57,20.71" transform="translate(3.45 -0.04)"/><path class="cls-3" d="M115.2,324.05c8.73-4.47,29.79-7.39,31,1.6s-2.67,10-18.25,14.41c-13,3.68-8.21,11.68-15.5,14-3.48,1.1-11.23,4-13.73-11.26-1.33-8.29,9.12-15,16.45-18.76m6-50.1c5.38-1.14,12.2.31,20.23,8.13s12.51,17.64,10.41,21.2-8.83,4.9-14.29,1.92a86.49,86.49,0,0,0-23.42-8.57c-10.29-2.25-4.92-20.17,7.07-22.68m63.11,14c10.12-3,19.58-5.52,25.06-.4,11.19,10.38,2.45,18.43-2.32,19.26-5.81,1-10.07-4-21.24,1.47-15.56,7.61-19,10.5-24.34,3.5s12.86-20.82,22.84-23.83M171.23,265.5c9.11,1.87,8.71,10.15,5.55,15.36s-8.66,12.07-15.07,11.16c-9.71-1.39-9-9.44-7.67-14.32,1.8-6.95,4.29-14.87,17.19-12.2m19.51,103c-1.79,7.5-17,6.34-29.07-6.63s-13-21.48-11.76-30.71,17.49-12.48,22-2.54c5.1,11.15,3.12,16.83,6.21,19.21,8.9,6.75,14.24,13.73,12.59,20.67" transform="translate(3.45 -0.04)"/><path class="cls-3" d="M250.25,324.05c8.74-4.47,29.8-7.39,31,1.6s-2.68,10-18.26,14.41c-13,3.68-8.22,11.68-15.5,14-3.48,1.1-11.22,4-13.73-11.26-1.33-8.29,9.13-15,16.45-18.76m6-50.1c5.37-1.14,12.2.31,20.23,8.13s12.51,17.64,10.41,21.2-8.84,4.9-14.29,1.92a86.71,86.71,0,0,0-23.43-8.57c-10.29-2.25-4.91-20.17,7.08-22.68m63.11,14c10.12-3,19.58-5.52,25.05-.4,11.19,10.38,2.45,18.43-2.32,19.26-5.81,1-10.06-4-21.24,1.47-15.56,7.61-19,10.5-24.34,3.5s12.87-20.82,22.85-23.83m-13.1-22.41c9.11,1.87,8.72,10.15,5.55,15.36s-8.66,12.07-15.07,11.16c-9.71-1.39-9-9.44-7.68-14.32,1.82-6.95,4.3-14.87,17.2-12.2m19.51,103c-1.8,7.5-17,6.34-29.07-6.63s-13-21.48-11.76-30.71,17.49-12.48,22-2.54c5.11,11.15,3.13,16.83,6.22,19.21,8.88,6.75,14.23,13.73,12.58,20.67" transform="translate(3.45 -0.04)"/><path class="cls-3" d="M384.89,324.05c8.74-4.47,29.79-7.39,31,1.6s-2.68,10-18.25,14.41c-13,3.68-8.22,11.68-15.49,14-3.49,1.1-11.23,4-13.72-11.26-1.35-8.29,9.1-15,16.43-18.76m6-50.1c5.36-1.14,12.19.31,20.22,8.13s12.52,17.64,10.42,21.2-8.82,4.9-14.3,1.92a86.67,86.67,0,0,0-23.41-8.57c-10.28-2.25-4.93-20.17,7.07-22.68m63.1,14c10.17-3,19.59-5.52,25.07-.4,11.17,10.38,2.44,18.43-2.34,19.26-5.81,1-10.05-4-21.24,1.47-15.55,7.61-19,10.5-24.31,3.5S444,290.92,454,287.91M440.93,265.5c9.09,1.87,8.73,10.15,5.53,15.36s-8.65,12.07-15.07,11.16c-9.69-1.39-9-9.44-7.67-14.32,1.81-6.95,4.29-14.87,17.21-12.2m19.48,103c-1.77,7.5-17,6.34-29.05-6.63s-13-21.48-11.76-30.71,17.49-12.48,22-2.54c5.11,11.15,3.14,16.83,6.23,19.21,8.87,6.75,14.22,13.73,12.56,20.67" transform="translate(3.45 -0.04)"/><path class="cls-3" d="M520,324.05c8.73-4.47,29.76-7.39,31,1.6s-2.66,10-18.24,14.41c-13,3.68-8.24,11.68-15.5,14-3.49,1.1-11.24,4-13.74-11.26-1.33-8.29,9.1-15,16.46-18.76m6-50.1c5.36-1.14,12.18.31,20.2,8.13s12.54,17.64,10.44,21.2-8.84,4.9-14.29,1.92a86.53,86.53,0,0,0-23.44-8.57C508.59,294.38,514,276.46,526,274m63.11,14c10.14-3,19.58-5.52,25.06-.4,11.17,10.38,2.44,18.43-2.32,19.26-5.81,1-10.07-4-21.25,1.47-15.57,7.61-19,10.5-24.32,3.5s12.82-20.82,22.83-23.83M576,265.5c9.11,1.87,8.73,10.15,5.51,15.36s-8.66,12.07-15.07,11.16c-9.67-1.39-8.93-9.44-7.65-14.32,1.81-6.95,4.28-14.87,17.21-12.2m19.49,103c-1.76,7.5-17,6.34-29.06-6.63s-13-21.48-11.76-30.71,17.48-12.48,22-2.54c5.09,11.15,3.1,16.83,6.21,19.21,8.88,6.75,14.22,13.73,12.57,20.67" transform="translate(3.45 -0.04)"/><path class="cls-3" d="M115.2,456.49c8.73-4.48,29.79-7.39,31,1.6s-2.67,10-18.25,14.41c-13,3.67-8.21,11.71-15.5,14-3.48,1.09-11.23,4-13.73-11.27-1.33-8.28,9.12-15,16.45-18.75m6-50.09c5.38-1.15,12.2.29,20.23,8.14s12.51,17.63,10.41,21.19-8.83,4.89-14.29,1.92a87.45,87.45,0,0,0-23.42-8.59c-10.29-2.22-4.92-20.14,7.07-22.66m63.11,14c10.12-3.05,19.58-5.54,25.06-.41,11.19,10.41,2.45,18.44-2.32,19.26-5.81,1-10.07-4-21.24,1.46-15.56,7.61-19,10.49-24.34,3.51s12.86-20.81,22.84-23.82m-13.09-22.43c9.11,1.89,8.71,10.16,5.55,15.36s-8.66,12.07-15.07,11.16c-9.71-1.39-9-9.44-7.67-14.32,1.8-6.95,4.29-14.88,17.19-12.2m19.51,103c-1.79,7.49-17,6.34-29.07-6.65s-13-21.44-11.76-30.67,17.49-12.51,22-2.59c5.1,11.17,3.12,16.86,6.21,19.22,8.9,6.78,14.24,13.75,12.59,20.69" transform="translate(3.45 -0.04)"/><path class="cls-3" d="M250.25,456.49c8.74-4.48,29.8-7.39,31,1.6s-2.68,10-18.26,14.41c-13,3.67-8.22,11.71-15.5,14-3.48,1.09-11.22,4-13.73-11.27-1.33-8.28,9.13-15,16.45-18.75m6-50.09c5.37-1.15,12.2.29,20.23,8.14s12.51,17.63,10.41,21.19-8.84,4.89-14.29,1.92a87.67,87.67,0,0,0-23.43-8.59c-10.29-2.22-4.91-20.14,7.08-22.66m63.11,14c10.12-3.05,19.58-5.54,25.05-.41,11.19,10.41,2.45,18.44-2.32,19.26-5.81,1-10.06-4-21.24,1.46-15.56,7.61-19,10.49-24.34,3.51s12.87-20.81,22.85-23.82m-13.1-22.43c9.11,1.89,8.72,10.16,5.55,15.36s-8.66,12.07-15.07,11.16c-9.71-1.39-9-9.44-7.68-14.32,1.82-6.95,4.3-14.88,17.2-12.2m19.51,103c-1.8,7.49-17,6.34-29.07-6.65s-13-21.44-11.76-30.67,17.49-12.51,22-2.59c5.11,11.17,3.13,16.86,6.22,19.22,8.88,6.78,14.23,13.75,12.58,20.69" transform="translate(3.45 -0.04)"/><path class="cls-3" d="M384.89,456.49c8.74-4.48,29.79-7.39,31,1.6s-2.68,10-18.25,14.41c-13,3.67-8.22,11.71-15.49,14-3.49,1.09-11.23,4-13.72-11.27-1.35-8.28,9.1-15,16.43-18.75m6-50.09c5.36-1.15,12.19.29,20.22,8.14s12.52,17.63,10.42,21.19-8.82,4.89-14.3,1.92a87.62,87.62,0,0,0-23.41-8.59c-10.28-2.22-4.93-20.14,7.07-22.66m63.1,14c10.17-3.05,19.59-5.54,25.07-.41,11.17,10.41,2.44,18.44-2.34,19.26-5.81,1-10.05-4-21.24,1.46-15.55,7.61-19,10.49-24.31,3.51S444,423.38,454,420.37m-13.08-22.43c9.09,1.89,8.73,10.16,5.53,15.36s-8.65,12.07-15.07,11.16c-9.69-1.39-9-9.44-7.67-14.32,1.81-6.95,4.29-14.88,17.21-12.2m19.48,103c-1.77,7.49-17,6.34-29.05-6.65s-13-21.44-11.76-30.67,17.49-12.51,22-2.59c5.11,11.17,3.14,16.86,6.23,19.22,8.87,6.78,14.22,13.75,12.56,20.69" transform="translate(3.45 -0.04)"/><path class="cls-3" d="M520,456.49c8.73-4.48,29.76-7.39,31,1.6s-2.66,10-18.24,14.41c-13,3.67-8.24,11.71-15.5,14-3.49,1.09-11.24,4-13.74-11.27-1.33-8.28,9.1-15,16.46-18.75m6-50.09c5.36-1.15,12.18.29,20.2,8.14s12.54,17.63,10.44,21.19-8.84,4.89-14.29,1.92a87.49,87.49,0,0,0-23.44-8.59c-10.28-2.22-4.9-20.14,7.09-22.66m63.11,14c10.14-3.05,19.58-5.54,25.06-.41,11.17,10.41,2.44,18.44-2.32,19.26-5.81,1-10.07-4-21.25,1.46-15.57,7.61-19,10.49-24.32,3.51s12.82-20.81,22.83-23.82M576,397.94c9.11,1.89,8.73,10.16,5.51,15.36s-8.66,12.07-15.07,11.16c-9.67-1.39-8.93-9.44-7.65-14.32,1.81-6.95,4.28-14.88,17.21-12.2m19.49,103c-1.76,7.49-17,6.34-29.06-6.65s-13-21.44-11.76-30.67,17.48-12.51,22-2.59c5.09,11.17,3.1,16.86,6.21,19.22,8.88,6.78,14.22,13.75,12.57,20.69" transform="translate(3.45 -0.04)"/></svg>