<?xml version="1.0" encoding="utf-8"?>
<!-- Generator: Adobe Illustrator 22.0.0, SVG Export Plug-In . SVG Version: 6.00 Build 0)  -->
<svg version="1.1" id="Capa_1" xmlns="http://www.w3.org/2000/svg" xmlns:xlink="http://www.w3.org/1999/xlink" x="0px" y="0px"
	 viewBox="0 0 500 500" style="enable-background:new 0 0 500 500;" xml:space="preserve">
<style type="text/css">
	.st0{fill:#23201F;}
</style>
<path class="st0" d="M249.9,0.6C111.9,0.6,0,112.5,0,250.5s111.9,249.9,249.9,249.9s249.9-111.9,249.9-249.9S387.9,0.6,249.9,0.6z
	 M364,195.4c0.1,2.5,0.2,4.9,0.2,7.4c0,75.8-57.7,163.2-163.2,163.2h0h0c-32.4,0-62.5-9.5-87.9-25.8c4.5,0.5,9.1,0.8,13.7,0.8
	c26.9,0,51.6-9.2,71.2-24.6c-25.1-0.5-46.3-17-53.6-39.8c3.5,0.7,7.1,1,10.8,1c5.2,0,10.3-0.7,15.1-2c-26.2-5.3-46-28.4-46-56.2
	c0-0.3,0-0.5,0-0.7c7.7,4.3,16.6,6.9,26,7.2c-15.4-10.3-25.5-27.8-25.5-47.7c0-10.5,2.8-20.4,7.8-28.8
	c28.3,34.7,70.6,57.5,118.2,59.9c-1-4.2-1.5-8.6-1.5-13.1c0-31.7,25.7-57.4,57.4-57.4c16.5,0,31.4,7,41.9,18.1
	c13.1-2.6,25.3-7.4,36.4-13.9c-4.3,13.4-13.4,24.6-25.2,31.7c11.6-1.4,22.7-4.5,32.9-9C384.9,177.2,375.2,187.3,364,195.4z"/>
</svg>
