<?xml version="1.0" encoding="utf-8"?>
<!-- Generator: Adobe Illustrator 22.0.0, SVG Export Plug-In . SVG Version: 6.00 Build 0)  -->
<svg version="1.1" id="Capa_1" xmlns="http://www.w3.org/2000/svg" xmlns:xlink="http://www.w3.org/1999/xlink" x="0px" y="0px"
	 viewBox="0 0 100 100" style="enable-background:new 0 0 100 100;" xml:space="preserve">
<style type="text/css">
	.st0{fill:none;}
	.st1{fill:#006BC0;}
	.st2{fill:#0096DC;}
	.st3{fill:#FFFFFF;}
	.st4{fill:#EDFFE9;}
</style>
<rect class="st0" width="100" height="100"/>
<path class="st1" d="M86.3,23.3l-5.7,66.2C72.2,96.1,61.5,100,50,100s-22.2-3.9-30.6-10.5l-5.7-66.2H86.3z"/>
<path class="st2" d="M50,29.6v69.1l23.9-6.7l5.3-62.4H50z"/>
<path class="st3" d="M71.1,56.6H53.9l18-9.2l0.8-9.2H27.3l0.8,9.4h18.2l-17.5,8.7l0.8,9.6h31.1l-1,11.5L50,80.1l-10.2-2.9l-0.3-7.1
	H30l1.2,14.1L50,89.5l18.8-5.3L71.1,56.6L71.1,56.6z"/>
<path class="st4" d="M32.3,13.1V6.6h9.4V3.1H28.9v13.6h12.8v-3.5H32.3z"/>
<path class="st3" d="M47.2,8.4V6.8h9.3V6.6V3.1H43.7v8.4h9.2v1.6h-9.2v3.5h12.8v-3.5V8.4H47.2z"/>
<path class="st3" d="M61.8,8.4V6.8h9.3V6.6V3.1H58.3v8.4h9.2v1.6h-9.2v3.5h12.8v-3.5V8.4H61.8z"/>
</svg>
