<svg width="100" height="100" viewBox="0 0 100 100" fill="none" xmlns="http://www.w3.org/2000/svg">
<path d="M1.73498 0C0.691927 0 -0.0851509 0.749028 0.00749566 1.66427L8.80027 88.5746C8.89292 89.49 9.79057 90.4402 10.7959 90.6861L48.1081 99.8155C49.1133 100.061 50.7576 100.061 51.763 99.8161L89.1887 90.6717C90.1938 90.426 91.0926 89.476 91.185 88.5607L99.9924 1.66427C100.086 0.749028 99.3078 0 98.2647 0H1.73498ZM81.2669 19.9326C81.1838 20.749 81.0402 22.1664 80.9476 23.0818L80.7159 25.3621C80.6226 26.2771 80.4899 27.5859 80.4198 28.2701C80.35 28.9545 80.2837 29.5145 80.2716 29.5145C80.2598 29.5145 79.3965 29.5145 78.3537 29.5145H51.8962C50.8532 29.5145 49.9912 29.5145 49.9799 29.5145C49.9686 29.5145 49.1057 29.5145 48.0627 29.5145H34.1285C33.0854 29.5145 32.3083 30.2635 32.401 31.1787L33.2137 39.1846C33.3064 40.0997 34.236 40.8489 35.2788 40.8489H48.0629C49.106 40.8489 49.9686 40.8489 49.9801 40.8489C49.9916 40.8489 50.8536 40.8489 51.8964 40.8489H73.8705C74.9136 40.8489 76.5276 40.8489 77.4571 40.8489C78.386 40.8489 79.0778 41.5171 78.9936 42.3335C78.9089 43.1499 78.7644 44.5677 78.672 45.4827L76.0586 71.2934C75.9653 72.2089 75.8473 73.3782 75.7966 73.8923C75.7447 74.406 74.8803 75.0273 73.8752 75.273L51.8275 80.6601C50.8224 80.9054 49.9874 81.1085 49.9717 81.1117C49.9562 81.1146 49.1215 80.9158 48.1159 80.6703L26.0447 75.2734C25.0396 75.0276 24.1415 74.0776 24.0491 73.1622L22.6283 59.1104C22.5357 58.1949 23.3136 57.4459 24.3567 57.4459H26.371C27.414 57.4459 29.1207 57.4459 30.1635 57.4459H33.1672C34.2103 57.4459 35.1389 58.1949 35.2322 59.1104L35.7895 64.6112C35.8821 65.5266 36.7813 66.4713 37.7884 66.711L48.1123 69.1678C49.1188 69.4075 49.9464 69.6036 49.9511 69.6036C49.9557 69.6036 50.7829 69.4071 51.7898 69.1674L62.1323 66.7047C63.1388 66.4651 64.0389 65.52 64.1322 64.6049L65.2537 53.5839C65.347 52.6685 64.57 51.9195 63.5269 51.9195H51.8964C50.8534 51.9195 49.9914 51.9195 49.9801 51.9195C49.9688 51.9195 49.106 51.9195 48.0629 51.9195H23.7944C22.7513 51.9195 21.8227 51.1703 21.73 50.2552L18.9781 23.082C18.8855 22.1666 18.7418 20.7496 18.6587 19.9327C18.5765 19.1163 19.3618 18.4482 20.4048 18.4482H48.0629C49.106 18.4482 49.9686 18.4482 49.9801 18.4482C49.9916 18.4482 50.8536 18.4482 51.8964 18.4482H79.5211C80.5639 18.4478 81.3496 19.1158 81.2669 19.9326Z" fill="#DD512A"/>
</svg>
