<svg id="Capa_1" data-name="Capa 1"
  xmlns="http://www.w3.org/2000/svg" viewBox="0 0 152.69 129.9">
  <title>LI-In-Bug</title>
  <path d="M566.4,564.88q-70.6,0-141.21,0c-1,0-1.13-.29-1.13-1.2q0-63.76,0-127.53c0-1,.2-1.17,1.17-1.17q75.16,0,150.33,0c1.08,0,1.19.31,1.19,1.26q0,59.75,0,119.49c-.74-.14-.53-.79-.63-1.23a8.51,8.51,0,0,0-7.25-7c-4.71-.8-9.41,3.19-9.59,8a8.54,8.54,0,0,0,6.24,8.73,2.58,2.58,0,0,1,.88.35A.24.24,0,0,1,566.4,564.88Z" transform="translate(-424.05 -435.01)" fill="rgba(0,0,0,0)"/>
  <path d="M553,499.62V554.1c0,5.77-4,9.78-9.82,9.78H434.23a9.34,9.34,0,0,1-9.71-9.65V444.92a9.34,9.34,0,0,1,9.64-9.6H543.48A9.33,9.33,0,0,1,553,444.9Z" transform="translate(-424.05 -435.01)" fill="#2867b1"/>
  <path d="M493.1,492a21.37,21.37,0,0,1,3.41-4.31A20,20,0,0,1,511,482c4.2.05,8.29.49,12.12,2.37,5.69,2.81,8.34,7.78,9.69,13.67A59.7,59.7,0,0,1,534,511.41c0,10.71,0,21.43,0,32.15,0,.91-.18,1.23-1.17,1.22q-8.34-.07-16.67,0c-1,0-1.16-.34-1.16-1.22q0-15.3,0-30.6a29.63,29.63,0,0,0-.61-6.43c-1.26-5.77-4.89-8.39-10.75-7.75s-8.94,4-9.71,10.19a40.3,40.3,0,0,0-.28,4.91c0,9.88,0,19.76,0,29.63,0,1-.23,1.28-1.24,1.27-5.56,0-11.12,0-16.68,0-.88,0-1.14-.21-1.14-1.12q0-29.46,0-58.92c0-.94.25-1.21,1.2-1.2q7.92.06,15.84,0c.94,0,1.24.24,1.2,1.2-.07,2,0,4,0,6C492.83,491.11,492.67,491.53,493.1,492Z" transform="translate(-424.05 -435.01)" fill="#fefefe"/>
  <path d="M443.56,514.25c0-9.8,0-19.6,0-29.4,0-1.06.26-1.33,1.32-1.32,5.52.06,11,.05,16.56,0,1,0,1.19.28,1.19,1.21q0,29.38,0,58.78c0,1-.29,1.26-1.27,1.25-5.56,0-11.12,0-16.68,0-.91,0-1.12-.25-1.12-1.14C443.57,533.84,443.56,524,443.56,514.25Z" transform="translate(-424.05 -435.01)" fill="#fefefe"/>
  <path d="M442.08,464.1a11,11,0,1,1,11,11A11.08,11.08,0,0,1,442.08,464.1Z" transform="translate(-424.05 -435.01)" fill="#fefefe"/>

</svg>