<svg width="100" height="100" viewBox="0 0 100 100" fill="none" xmlns="http://www.w3.org/2000/svg">
<path d="M50.6531 21.5196C50.6382 21.3655 50.6312 21.2114 50.6312 21.0569C50.6312 18.7956 52.1124 16.956 53.9325 16.956C55.7952 16.956 57.2542 18.7573 57.2542 21.0569C57.2542 21.5776 57.1759 22.0796 57.03 22.5433C57.5759 21.6757 57.8917 20.5839 57.8917 19.4394C57.8917 16.6896 56.1339 14.4521 53.9737 14.4521C51.813 14.4521 50.0558 16.6894 50.0558 19.4394C50.0558 20.1153 50.1616 20.7771 50.3712 21.4118C50.4624 21.4466 50.5566 21.4827 50.6531 21.5196Z" fill="white"/>
<path d="M40.8996 17.1726C41.0176 17.1546 41.1256 17.1464 41.233 17.1464C42.6818 17.1464 43.9808 18.5685 44.3213 20.5275C44.3554 20.7423 44.3769 20.9564 44.3865 21.1675C44.4806 21.1196 44.5763 21.0747 44.6738 21.0331C44.7217 20.6935 44.7449 20.3751 44.7449 20.0554C44.7449 17.5191 43.4013 15.3763 41.8115 15.3763C40.4574 15.3763 39.3164 16.8677 38.9912 18.8822C39.3615 17.9634 40.0375 17.3158 40.8996 17.1726Z" fill="white"/>
<path d="M68.1819 68.3315C68.5462 66.787 69.2708 62.8433 68.5848 58.0728C67.718 52.0435 59.2343 33.2694 57.7743 31.1731C56.9228 31.292 54.6599 32.5997 52.8247 33.66C50.6966 34.8895 48.4954 36.1614 46.9988 36.5934C46.6863 36.6819 46.3595 36.7256 46.0228 36.7256C43.8355 36.7256 41.4681 34.8764 39.9418 33.4198C39.6752 36.2463 38.1687 39.8328 36.5388 41.6762C35.5094 42.8568 34.5892 45.5539 33.6994 48.1625C32.8752 50.5779 32.023 53.0759 30.9797 54.7234C28.8686 58.0128 27.6576 64.4021 29.1938 68.0356C29.9371 69.797 32.6351 71.877 35.0154 73.7118C37.9265 75.9561 40.4404 77.894 40.7177 79.8483C41.0414 82.159 39.8125 83.4397 38.5836 84.0469L41.7009 87.6139C42.1826 87.6869 43.3425 87.827 45.1603 87.827C47.2865 87.827 49.6466 87.641 52.1734 87.2735C58.377 86.3545 62.6979 81.2422 63.5524 80.1567C63.5569 78.7186 63.6009 72.3202 64.0204 70.3196C64.1833 69.5491 64.8089 68.2597 67.1719 68.2597C67.5393 68.2591 67.8891 68.2913 68.1819 68.3315Z" fill="white"/>
<path d="M41.1107 28.7266C41.2324 29.1997 42.3091 30.4096 43.9838 31.5083C44.2214 31.6608 44.4445 31.8126 44.6539 31.9547C45.5828 32.586 45.9959 32.8452 46.6636 32.7551C47.6468 32.6262 51.2689 30.4301 52.8157 29.4922L53.2007 29.259C53.7767 28.9083 54.237 28.6686 54.6069 28.476C55.3394 28.095 55.4056 28.0335 55.4368 27.8944C55.3538 27.679 54.67 27.1022 53.3585 26.6514C52.9417 26.5022 52.3503 26.2659 51.6652 25.9925C50.1829 25.4007 48.1527 24.5909 47.3298 24.4452C47.2947 24.4386 47.2617 24.4364 47.2246 24.4364C46.5242 24.4364 45.1091 25.3151 43.7029 26.6227C43.0097 27.2485 41.6566 28.3046 41.1107 28.7266Z" fill="#E69629"/>
<path d="M28.7399 77.252C28.1308 76.2321 27.6042 75.3506 27.32 74.9114C26.1993 73.1671 24.2544 71.2186 23.3275 71.2186C23.2462 71.2186 23.2034 71.2376 23.1757 71.254C22.681 71.5356 22.2652 72.394 21.8626 73.2235C21.3066 74.371 20.6761 75.6717 19.5118 76.377C18.6505 76.8997 17.3337 77.1852 16.0611 77.462C15.1554 77.6586 13.0351 78.1186 12.9355 78.5483C12.7982 79.128 12.9259 79.7266 13.088 80.4844C13.2789 81.3785 13.5169 82.491 13.3142 83.8569C13.1712 84.7135 12.9113 85.5317 12.6591 86.3231C12.3089 87.424 11.9119 88.6727 12.2543 89.0564C12.6765 89.4293 15.2244 89.8414 17.0845 90.1428C19.4228 90.5211 21.8405 90.9127 23.3212 91.533L23.7136 91.6982C26.3657 92.8127 31.3022 94.8875 33.796 94.8875C34.0229 94.8875 34.2163 94.8691 34.3723 94.834C34.8024 94.5445 36.6245 93.2355 36.9669 91.6262C37.4344 89.5521 35.5337 87.133 34.3596 85.8754C33.0565 84.476 30.5618 80.3004 28.7399 77.252Z" fill="#E69629"/>
<path d="M85.1093 82.2211L84.8054 82.0611C82.7179 80.9576 81.6204 77.9627 81.7657 75.7053C81.7929 75.2895 81.7411 74.967 81.6569 74.72C81.2714 75.3541 80.7208 76.1551 80.0665 76.8092C78.955 77.9209 76.2415 79.1203 73.796 79.1203C72.8839 79.1203 72.0525 78.9596 71.3249 78.6422C68.8839 77.5776 68.5511 74.5248 68.5449 72.9944C68.5087 73.0045 68.4757 73.0163 68.4462 73.0301C68.297 73.5577 68.4416 75.336 68.539 76.533C68.5912 77.1735 68.6449 77.8356 68.6767 78.4432C68.815 81.1205 67.9623 85.6615 67.2222 88.9996C66.5197 92.2675 67.8271 94.5589 69.4144 95.0537C69.557 95.099 69.7173 95.1213 69.8935 95.1213C71.3558 95.1213 73.7775 93.6078 75.9185 91.3547C77.4396 89.7553 80.8251 88.0266 83.8122 86.5012C85.4962 85.6414 87.2374 84.752 87.7323 84.2998C87.8425 84.1973 87.8589 84.1398 87.8593 84.1395C87.828 83.6484 85.8528 82.6113 85.1093 82.2211Z" fill="#E69629"/>
<path d="M90.0526 80.2913C87.1202 79.0907 85.8657 77.4968 85.987 75.1185C86.112 72.3427 84.5372 70.3099 83.7893 69.5066C84.2411 67.7806 85.5614 61.8101 83.7907 56.624C81.8878 51.0732 76.0778 42.5957 70.0831 34.2624C67.629 30.8401 67.513 27.1198 67.3788 22.8122C67.2503 18.7036 67.1054 14.0466 64.8142 8.8695C62.323 3.23241 57.3242 0 51.099 0C47.3957 0 43.5943 1.15742 40.6692 3.17518C34.679 7.30935 35.4707 16.3228 35.9948 22.2866C36.0666 23.1034 36.134 23.8749 36.1735 24.5335C36.5223 30.3749 36.2049 33.4538 35.7899 34.3895C35.5213 35.001 34.1995 36.7413 32.8004 38.584C31.3536 40.4899 29.7132 42.6496 28.3686 44.6623C26.7643 47.0844 25.4692 50.7863 24.2169 54.3662C23.3005 56.9855 22.4349 59.4599 21.5923 60.9394C19.9952 63.7839 20.3927 66.4365 20.7243 67.6624C20.1196 68.0824 19.2462 68.9097 18.5089 70.4683C17.6177 72.3698 15.8095 73.3915 12.0495 74.1145C10.3216 74.4681 9.13022 75.1946 8.50718 76.2739C7.60054 77.8448 8.09449 79.8184 8.54487 81.1676C9.2105 83.1503 8.79566 84.4053 8.04156 86.6844C7.86773 87.21 7.67066 87.8057 7.47105 88.4622C7.1566 89.4989 7.27007 90.4409 7.80738 91.2631C9.22729 93.4336 13.371 94.1992 17.6366 94.7031C20.1835 95.0055 22.971 96.024 25.6671 97.0094C28.3087 97.9746 31.0403 98.973 33.5231 99.276C33.9004 99.3234 34.2743 99.3471 34.6346 99.3471C38.3834 99.3471 40.0772 96.8598 40.6143 95.8379C41.9608 95.5631 46.6051 94.6832 51.3918 94.5649C56.1709 94.4287 60.7947 95.3725 62.1046 95.6654C62.5163 96.4537 63.6021 98.2539 65.3325 99.1818C66.2837 99.7018 67.6073 99.9998 68.963 99.9998C68.9634 99.9998 68.963 99.9998 68.9634 99.9998C70.4112 99.9998 73.1657 99.6574 75.3458 97.3637C77.5202 95.0598 82.953 92.1178 86.9202 89.97C87.8055 89.4907 88.6336 89.042 89.3598 88.6375C91.5883 87.4022 92.8043 85.6372 92.6959 83.795C92.6053 82.2641 91.5924 80.9219 90.0526 80.2913ZM53.9734 14.4521C56.1338 14.4521 57.8914 16.6894 57.8914 19.4394C57.8914 20.5837 57.5755 21.6755 57.0297 22.5433C57.1752 22.0796 57.2539 21.5776 57.2539 21.0569C57.2539 18.7573 55.7949 16.956 53.9322 16.956C52.1119 16.956 50.6308 18.7956 50.6308 21.0569C50.6308 21.2114 50.6385 21.3655 50.6527 21.5196C50.5562 21.4829 50.4623 21.4466 50.3705 21.4118C50.1609 20.7771 50.0551 20.1153 50.0551 19.4394C50.0553 16.6896 51.8127 14.4521 53.9734 14.4521ZM47.3297 24.446C48.1527 24.5913 50.1824 25.4015 51.665 25.9933C52.3502 26.2667 52.9422 26.503 53.3584 26.6522C54.6699 27.103 55.3539 27.6798 55.4367 27.8952C55.4056 28.0345 55.3392 28.0958 54.6068 28.4768C54.2369 28.6692 53.7767 28.9087 53.2006 29.2598L52.8156 29.493C51.2687 30.4311 47.6467 32.6274 46.6635 32.7559C45.9955 32.8458 45.5824 32.5864 44.6537 31.9555C44.4442 31.813 44.2213 31.6614 43.9836 31.5091C42.3092 30.41 41.2321 29.2005 41.1106 28.7274C41.6565 28.3056 43.0096 27.2493 43.7024 26.6237C45.1086 25.3161 46.5236 24.4374 47.224 24.4374C47.2611 24.4368 47.2947 24.4394 47.3297 24.446ZM41.811 15.3757C43.4012 15.3757 44.7443 17.5183 44.7443 20.0548C44.7443 20.3747 44.7213 20.6929 44.6733 21.0325C44.5758 21.0741 44.4801 21.1194 44.3859 21.1669C44.3764 20.9554 44.3545 20.7417 44.3207 20.5269C43.9805 18.5679 42.6813 17.1458 41.2324 17.1458C41.1252 17.1458 41.0174 17.154 40.899 17.172C40.0371 17.3156 39.361 17.9628 38.9905 18.8812C39.316 16.8669 40.4573 15.3757 41.811 15.3757ZM36.9668 91.6262C36.6245 93.2358 34.8022 94.5445 34.3723 94.834C34.2163 94.8692 34.0231 94.8875 33.7959 94.8875C31.3022 94.8875 26.3657 92.8127 23.7136 91.6983L23.3212 91.533C21.8401 90.9123 19.4226 90.5213 17.0845 90.1428C15.2241 89.8414 12.6767 89.4293 12.2542 89.0565C11.9119 88.6725 12.3089 87.4241 12.6591 86.3231C12.9113 85.5317 13.1716 84.7135 13.3142 83.8569C13.5165 82.4911 13.2788 81.3782 13.088 80.4844C12.9261 79.7264 12.7982 79.128 12.9355 78.5483C13.0351 78.1188 15.1554 77.6589 16.0611 77.462C17.3341 77.1852 18.6509 76.8997 19.5118 76.377C20.6761 75.6718 21.3065 74.3712 21.8626 73.2235C22.2651 72.3941 22.681 71.5357 23.1757 71.254C23.2036 71.2372 23.2462 71.2187 23.3274 71.2187C24.2544 71.2187 26.1993 73.1669 27.32 74.9114C27.6042 75.3507 28.1307 76.2317 28.7399 77.252C30.562 80.3007 33.0567 84.476 34.3596 85.8753C35.5336 87.1331 37.4342 89.552 36.9668 91.6262ZM64.0206 70.3194C63.6017 72.32 63.5574 78.7184 63.5527 80.1565C62.6982 81.2421 58.3773 86.3541 52.1736 87.2733C49.6467 87.6405 47.2871 87.8268 45.1606 87.8268C43.3428 87.8268 42.1828 87.6864 41.7012 87.6137L38.5838 84.0467C39.8127 83.4395 41.0416 82.1589 40.718 79.8481C40.4407 77.894 37.9268 75.9559 35.0157 73.7116C32.6354 71.8769 29.9374 69.7972 29.194 68.0355C27.6579 64.4023 28.8688 58.0131 30.9799 54.7232C32.0233 53.076 32.8754 50.5777 33.6997 48.1623C34.5895 45.5537 35.5098 42.8565 36.5391 41.676C38.169 39.8327 39.6752 36.2461 39.942 33.4196C41.4682 34.8762 43.8358 36.7254 46.0231 36.7254C46.3598 36.7254 46.6867 36.6815 46.999 36.5932C48.4955 36.161 50.6965 34.8893 52.825 33.6598C54.6601 32.5995 56.923 31.2919 57.7746 31.1729C59.2345 33.2694 67.7183 52.0435 68.5851 58.0726C69.271 62.8431 68.5464 66.7867 68.1821 68.3314C67.889 68.2911 67.5396 68.2589 67.1724 68.2589C64.8091 68.2591 64.1835 69.5489 64.0206 70.3194ZM87.7328 84.3006C87.2381 84.7528 85.4967 85.6422 83.8127 86.502C80.8255 88.027 77.4395 89.7561 75.919 91.3555C73.778 93.6086 71.3564 95.1221 69.8941 95.1221C69.7181 95.1221 69.5577 95.0998 69.415 95.0545C67.8275 94.5598 66.5202 92.2682 67.2228 89.0004C67.9628 85.662 68.8151 81.1214 68.6773 78.444C68.6454 77.8362 68.5917 77.1741 68.5396 76.5339C68.4421 75.3372 68.2976 73.5587 68.4468 73.031C68.4763 73.0171 68.5091 73.0054 68.5454 72.9952C68.5517 74.5257 68.8841 77.5786 71.3255 78.643C72.053 78.9604 72.8845 79.1212 73.7966 79.1212C76.2421 79.1212 78.9555 77.9218 80.0671 76.8101C80.7215 76.156 81.2719 75.355 81.6575 74.7208C81.7417 74.9677 81.7936 75.2903 81.7663 75.7059C81.621 77.9634 82.718 80.9581 84.8059 82.0618L85.1098 82.2217C85.8534 82.6116 87.8286 83.6489 87.8604 84.1405C87.8594 84.1405 87.843 84.1983 87.7328 84.3006Z" fill="black"/>
</svg>
