<svg width="100" height="100" viewBox="0 0 100 100" fill="none" xmlns="http://www.w3.org/2000/svg">
<path d="M100 50C100 51.5449 99.9307 53.0715 99.7918 54.5797C99.6857 55.7736 99.5346 56.9531 99.3428 58.1186C95.4652 81.8715 74.849 100 50 100C37.3428 100 25.7857 95.298 16.9775 87.5428C13.7225 84.6795 10.8428 81.3979 8.42246 77.7816C3.10195 69.8367 0 60.2797 0 50C0 22.3857 22.3857 0 50 0C77.6143 0 100 22.3857 100 50Z" fill="#F2F2F2"/>
<path d="M87.2591 55.6592C85.7427 56.2326 85.8041 56.2428 85.0019 54.7816C83.9775 52.9205 83.4326 50.9633 83.3855 48.8348C83.3466 47.0082 83.8466 45.3103 84.4753 43.6449C84.9773 42.3205 84.3244 41.8531 83.1773 41.7326C82.3425 41.6469 81.4814 41.6551 80.6447 41.7408C78.4691 41.9633 78.2548 42.151 77.6773 44.2633C77.3345 45.5164 77.0609 46.7797 76.4916 47.9693C75.0875 50.8978 73.4916 53.7183 71.8548 56.5183C71.5609 57.0224 71.3181 57.5652 70.9039 57.9959C69.7181 56.2203 69.2712 54.2592 69.1712 52.2019C69.0713 50.1713 69.6937 48.2836 70.3773 46.4162C70.608 45.7877 70.4162 45.3978 69.8732 45.1264C69.6324 45.006 69.363 44.8937 69.0998 44.8732C67.7039 44.7631 66.3121 44.7793 64.9507 45.1609C64.3384 45.3303 63.9384 45.6732 63.8017 46.3609C63.5365 47.7058 63.1222 49.0119 62.5628 50.2691C61.0119 53.7508 59.4711 57.2385 57.922 60.7222C56.5751 63.7488 55.2486 66.7834 53.6527 69.6896C53.5404 69.8957 53.4466 70.2529 53.165 70.1814C52.8792 70.1099 52.9792 69.759 52.9669 69.5181C52.8751 67.8039 53.3425 66.1691 53.7404 64.5324C54.371 61.9426 55.0607 59.365 55.7302 56.7834C55.922 56.0426 55.5996 55.5445 54.9853 55.1894C54.1017 54.6812 53.222 54.6568 52.265 55.3689C52.3956 54.3158 52.4527 53.3914 52.4078 52.467C52.3058 50.4058 51.3505 49.065 49.6875 48.7547C48.4732 48.5281 47.3242 48.8812 46.2384 49.3955C43.7078 50.5935 41.6732 52.3996 39.9628 54.5914C39.7628 54.8465 39.5609 55.0812 39.271 55.2383C36.0609 56.9873 32.8527 58.7363 29.6507 60.5015C29.2998 60.6974 29.0732 60.6424 28.8201 60.3709C27.2078 58.6424 25.3365 57.2158 23.4833 55.7689C20.8935 53.7445 18.214 51.8262 15.9792 49.3853C14.6732 47.9568 13.5833 46.3914 13.0384 44.5017C12.1486 41.4119 12.814 38.5344 14.2956 35.7998C16.0488 32.565 18.6488 30.0672 21.516 27.8426C26.0691 24.3119 31.0628 21.5078 36.3261 19.1998C42.2201 16.6182 48.3343 14.9549 54.8464 15.2059C57.4261 15.3059 59.93 15.7527 62.2281 17.016C63.8546 17.91 64.9322 19.2017 65.2363 21.0976C65.5935 23.318 65.0607 25.3691 64.0751 27.3141C61.8732 31.659 58.3732 34.7365 54.2363 37.1467C50.7914 39.1527 47.0751 40.4264 43.1423 41.0935C40.9689 41.4629 38.7873 41.6853 36.6015 41.3527C34.0933 40.9711 31.7749 40.1324 30.0587 38.1119C29.8607 37.8793 29.6097 37.718 29.273 37.8812C28.9281 38.0486 28.9546 38.3547 28.9872 38.6486C29.0117 38.8506 29.0669 39.0547 29.1382 39.2467C29.5974 40.4855 30.4566 41.4201 31.4626 42.2365C34.0791 44.365 37.179 44.9896 40.4341 45.0529C43.6199 45.1162 46.7566 44.7121 49.8607 43.9693C56.8626 42.2959 62.7281 38.8611 67.0097 32.9754C69.5689 29.457 71.1894 25.5795 71.0464 21.1428C70.9546 18.3285 70.0076 15.8428 67.9566 13.8225C65.5177 11.4244 62.4914 10.2184 59.2443 9.49394C55.6279 8.68984 51.9749 8.57558 48.2851 9.0164C45.0749 9.39999 41.9382 10.0572 38.8851 11.1082C34.2136 12.7184 29.7015 14.6959 25.3832 17.1C20.9587 19.5611 16.7892 22.3797 13.1322 25.9101C9.89545 29.0346 7.11381 32.4816 5.54643 36.7611C4.87709 38.5937 4.39545 40.4775 4.84447 42.4592C5.42006 45.0101 6.67709 47.2183 8.33022 49.2101C10.8302 52.2265 13.8976 54.6019 17.0609 56.8713C19.6017 58.6957 22.2609 60.357 24.7017 62.3181C25.3935 62.8732 25.3894 62.8732 24.5751 63.2998C23.6242 63.7957 22.6628 64.2732 21.7283 64.8017C17.9591 66.9326 14.3164 69.2427 11.3427 72.4531C9.87944 74.0347 8.88549 75.8103 8.42241 77.7816C10.8427 81.398 13.7224 84.6797 16.9775 87.5427C22.5306 87.1101 26.7816 84.2203 29.9224 79.4408C31.4388 77.1326 32.149 74.5205 32.4164 71.7652C32.6511 69.3367 32.404 66.9855 31.6898 64.6672C31.5654 64.259 31.1021 63.8529 31.2837 63.4937C31.4531 63.1631 31.9634 62.9957 32.3388 62.7795C33.8531 61.8998 35.3714 61.0326 36.9306 60.1367C36.998 60.4715 36.8673 60.6674 36.8103 60.8795C35.9164 64.1592 35.2939 67.4652 35.9736 70.8734C36.396 72.9959 37.1001 74.9937 38.4388 76.751C39.8164 78.5592 42.8919 78.3529 44.1408 76.7019C45.3265 75.1345 46.1123 73.3672 46.9306 71.608C47.3796 70.6447 47.7917 69.6652 48.2205 68.6916C48.1408 69.8631 48.1449 71.0058 48.1878 72.1447C48.2306 73.2672 48.4103 74.3754 48.9939 75.3672C49.6958 76.559 51.0164 76.906 52.2429 76.2691C53.5369 75.5976 54.4185 74.4916 55.1041 73.2916C58.0449 68.1304 60.7734 62.859 63.0326 57.3549C63.5142 56.1855 64.0082 55.0181 64.5531 53.7181C64.6367 54.1447 64.6919 54.4058 64.7429 54.6672C65.2449 57.2896 66.1388 59.7713 67.4328 62.1039C67.7103 62.6039 67.6796 62.9488 67.3287 63.4283C66.1369 65.0508 64.8306 66.5773 63.5429 68.1201C62.4613 69.4181 61.3041 70.659 60.3898 72.0875C59.5695 73.3732 60.0408 74.6894 61.4062 74.9814C61.8265 75.0713 62.2695 75.0978 62.7001 75.0916C65.0859 75.0631 67.2878 74.3508 69.339 73.1834C72.1002 71.6099 73.7371 69.3037 73.6615 66.0201C73.6267 64.5262 73.2226 63.0916 72.6207 61.722C72.488 61.4179 72.4818 61.1976 72.6798 60.9119C74.5921 58.173 76.2818 55.3017 77.8349 52.3467C78.1105 51.8264 78.3043 51.2486 78.7492 50.7406C78.8084 50.9467 78.8552 51.0754 78.8818 51.208C79.3757 53.657 80.041 56.0508 81.29 58.2365C81.6328 58.8345 81.4615 59.1385 80.988 59.5385C79.3574 60.9242 77.982 62.5404 76.9023 64.3916C76.0615 65.8324 75.4859 67.3711 75.4921 69.059C75.4982 70.9365 76.9349 72.0426 78.7656 71.6017C80.6738 71.1445 82.4431 70.367 84.0308 69.2058C87.49 66.6732 88.5043 64.0017 87.4207 60.2732C86.9962 58.8058 87.0043 58.8304 88.4757 58.3855C91.6941 57.414 94.9593 57.3732 98.241 57.908C98.6125 57.9691 98.9798 58.0387 99.3429 58.1181C99.5347 56.9529 99.6857 55.7732 99.792 54.5793C95.5939 53.5531 91.4019 54.0857 87.2591 55.6592ZM19.255 81.9142C18.3224 82.2449 17.3531 82.3857 16.3611 82.3082C15.1263 82.2101 14.3427 81.3388 14.263 80.0285C14.1732 78.5183 14.6203 77.1551 15.2814 75.8285C16.4833 73.4203 18.5017 71.7857 20.5611 70.1816C22.563 68.6205 24.7142 67.2877 26.8896 65.9918C27.5488 65.6 27.5589 65.6041 27.7099 66.3898C27.9058 67.398 28.0814 68.4082 28.016 69.3246C28.1876 74.8203 24.1958 80.1652 19.255 81.9142ZM49.2101 54.2019C48.8632 56.5183 48.106 58.7244 47.2999 60.9039C46.2019 63.8795 45.1326 66.8691 43.7509 69.7304C43.4345 70.3896 43.1019 71.0447 42.5898 71.5814C42.1062 72.0896 41.6775 72.0304 41.3429 71.4099C40.6898 70.1976 40.7714 68.8488 40.6654 67.8691C40.696 62.9549 42.3451 58.9385 45.0613 55.3283C45.8205 54.3223 46.7898 53.5039 48.0736 53.1752C48.9449 52.9531 49.3468 53.3041 49.2101 54.2019ZM68.2306 68.751C67.3 70.3592 65.9591 71.5285 64.3142 72.3611C64.1386 72.4488 63.9123 72.6039 63.7531 72.3978C63.6021 72.2039 63.8449 72.0754 63.955 71.9529C65.5898 70.1672 67.2041 68.3672 68.6591 66.4304C68.6816 66.3998 68.7367 66.3957 68.8611 66.3428C68.8468 67.2388 68.6509 68.0265 68.2306 68.751ZM79.5183 68.6816C79.2755 68.7959 78.9939 69.0101 78.7572 68.8265C78.496 68.6246 78.6 68.2674 78.6796 67.9939C79.0511 66.747 79.5511 65.5531 80.2408 64.4408C80.8203 63.5041 81.5388 62.6857 82.3285 61.9224C82.6468 61.6164 82.7896 61.6531 82.8978 62.0939C83.0101 62.5449 83.0203 62.9959 83.0285 63.4551C83.0082 65.9674 81.7326 67.6388 79.5183 68.6816Z" fill="#CD6699"/>
</svg>
