<svg width="100" height="100" viewBox="0 0 100 100" fill="none" xmlns="http://www.w3.org/2000/svg">
<path d="M16.6666 0V100H75L100 75V0H16.6666Z" fill="#EFEEEE"/>
<path d="M75 75V100L100 75H75Z" fill="#ABABAB"/>
<path d="M50 100H75V75L50 100Z" fill="#DEDEDD"/>
<path d="M0 25V54.1667H66.6667V25H0Z" fill="#527DA1"/>
<path d="M14.225 43.4958C14.225 43.9125 14.2542 44.2917 14.3208 44.6292C14.3875 44.9708 14.5083 45.2583 14.6958 45.4917C14.875 45.7292 15.125 45.9125 15.4333 46.0458C15.7375 46.175 16.1292 46.2458 16.5917 46.2458C17.1458 46.2458 17.6417 46.0667 18.0792 45.7083C18.5167 45.35 18.7417 44.7917 18.7417 44.0458C18.7417 43.6458 18.6875 43.3 18.5792 43.0083C18.4708 42.7167 18.2917 42.4542 18.0417 42.225C17.7917 41.9875 17.4583 41.7792 17.0542 41.5875C16.65 41.3958 16.1417 41.2 15.5417 41C14.7458 40.7333 14.0542 40.4375 13.4667 40.1208C12.8833 39.8083 12.4 39.4375 12.0042 39.0083C11.6125 38.5833 11.325 38.0917 11.1417 37.5333C10.9583 36.9708 10.8708 36.3292 10.8708 35.5917C10.8708 33.825 11.3583 32.5125 12.3458 31.6458C13.3333 30.7792 14.6833 30.3458 16.4 30.3458C17.1958 30.3458 17.9375 30.4333 18.6083 30.6083C19.2833 30.7833 19.8667 31.0625 20.3625 31.4583C20.85 31.85 21.2333 32.35 21.5083 32.9542C21.7833 33.5625 21.925 34.2917 21.925 35.1417V35.6417H18.475C18.475 34.7917 18.3208 34.1375 18.025 33.675C17.725 33.2208 17.225 32.9875 16.525 32.9875C16.125 32.9875 15.7917 33.05 15.525 33.1625C15.2625 33.2792 15.0458 33.4333 14.8917 33.625C14.7292 33.8167 14.625 34.0375 14.5667 34.2875C14.5083 34.5375 14.4792 34.7958 14.4792 35.0625C14.4792 35.6167 14.5958 36.075 14.8292 36.45C15.0667 36.8292 15.5625 37.175 16.3292 37.4875L19.1042 38.6875C19.7875 38.9875 20.3458 39.3 20.775 39.6292C21.2083 39.9542 21.5583 40.3042 21.8167 40.6792C22.075 41.0542 22.25 41.4625 22.3542 41.9167C22.45 42.3625 22.5 42.8667 22.5 43.4125C22.5 45.2958 21.9542 46.6667 20.8625 47.525C19.7708 48.3833 18.25 48.8167 16.3 48.8167C14.2667 48.8167 12.8125 48.375 11.9333 47.4917C11.0625 46.6083 10.625 45.3417 10.625 43.6917V42.9667H14.225V43.4958Z" fill="white"/>
<path d="M33.8709 48.5458C33.2042 48.7292 32.4125 48.8208 31.4959 48.8208C30.15 48.8208 29.0709 48.6 28.275 48.1708C27.4792 47.7375 26.8625 47.1125 26.4375 46.2958C26.0125 45.4792 25.7375 44.5042 25.6167 43.3708C25.4917 42.2417 25.4292 40.9875 25.4292 39.625C25.4292 38.275 25.4917 37.0291 25.6167 35.8875C25.7375 34.75 26.0167 33.7666 26.4375 32.95C26.8667 32.1375 27.4792 31.4958 28.275 31.0375C29.0709 30.5833 30.15 30.35 31.4959 30.35C32.8459 30.35 33.9209 30.5833 34.7209 31.0375C35.5209 31.4958 36.1334 32.1375 36.5542 32.95C36.9834 33.7666 37.2542 34.75 37.3834 35.8875C37.5042 37.0291 37.5709 38.275 37.5709 39.625C37.5709 41.1375 37.4834 42.5125 37.3167 43.7458C37.15 44.9833 36.775 46.0208 36.1917 46.8708L38.1125 48.7458L35.9875 50.6708L33.8709 48.5458ZM29.1084 42.6833C29.1667 43.525 29.2834 44.2083 29.4584 44.7333C29.6334 45.2583 29.8834 45.6417 30.2084 45.8833C30.5334 46.125 30.9667 46.2458 31.4959 46.2458C32.0334 46.2458 32.4584 46.125 32.7875 45.8833C33.1125 45.6375 33.3625 45.2583 33.5417 44.7333C33.7125 44.2083 33.8292 43.525 33.8917 42.6833C33.95 41.8417 33.9792 40.825 33.9792 39.625C33.9792 38.425 33.95 37.4083 33.8917 36.575C33.8292 35.7416 33.7125 35.0583 33.5417 34.525C33.3625 33.9916 33.1125 33.6041 32.7875 33.3666C32.4625 33.1208 32.0334 33 31.4959 33C30.9667 33 30.5375 33.1208 30.2084 33.3666C29.8834 33.6083 29.6334 33.9916 29.4584 34.525C29.2834 35.0583 29.1667 35.7375 29.1084 36.5708C29.05 37.4041 29.0209 38.4208 29.0209 39.6208C29.0209 40.8208 29.0542 41.8417 29.1084 42.6833Z" fill="white"/>
<path d="M41.1917 30.6958H44.7958V45.5958H51.1708V48.5458H41.1917V30.6958Z" fill="white"/>
</svg>
